<?xml version="1.0" encoding="utf-8"?>
<!-- Generator: Adobe Illustrator 22.1.0, SVG Export Plug-In . SVG Version: 6.00 Build 0)  -->
<svg version="1.1" id="Layer_1" xmlns="http://www.w3.org/2000/svg" xmlns:xlink="http://www.w3.org/1999/xlink" x="0px" y="0px"
	 viewBox="0 0 141.4 25" style="enable-background:new 0 0 141.4 25;" xml:space="preserve">
<style type="text/css">
	.st0{fill:#00D6FF;}
	.st1{fill:none;stroke:#E51A1A;stroke-width:12;stroke-linecap:round;stroke-linejoin:round;stroke-miterlimit:10;}
	.st2{fill:#FFFFFF;}
</style>
<path class="st0" d="M50.3,3c1.9,1.4,3.1,3.4,3.5,5.9h-6c-0.4-0.8-1-1.5-1.8-2s-1.8-0.7-2.9-0.7c-1.8,0-3.2,0.6-4.3,1.8
	s-1.6,2.8-1.6,4.9c0,2.2,0.6,3.9,1.7,5.1c1.1,1.2,2.8,1.8,4.9,1.8c1.4,0,2.5-0.4,3.5-1.1s1.7-1.8,2.2-3.2h-7.2v-4.1h11.9V17
	c-0.4,1.4-1.1,2.6-2.1,3.8s-2.2,2.1-3.7,2.9c-1.5,0.7-3.2,1.1-5.2,1.1c-2.4,0-4.4-0.5-6.2-1.5s-3.1-2.4-4.1-4.2
	c-1-1.9-1.4-3.9-1.4-6.3c0-2.3,0.5-4.4,1.4-6.2s2.3-3.2,4.1-4.2s3.8-1.5,6.2-1.5C46,0.9,48.4,1.6,50.3,3z"/>
<path class="st0" d="M63.1,0v24.6h-5.7V0H63.1z"/>
<path class="st0" d="M84.4,16.3H71.5c0.1,1.4,0.4,2.4,1.1,3s1.5,0.9,2.5,0.9c0.8,0,1.5-0.2,2.1-0.6c0.5-0.4,0.9-1,1.1-1.6h6
	c-0.2,1.3-0.8,2.5-1.6,3.5c-0.8,1-1.9,1.8-3.1,2.4c-1.3,0.6-2.7,0.9-4.2,0.9c-1.8,0-3.4-0.4-4.8-1.1c-1.4-0.8-2.5-1.9-3.3-3.3
	s-1.2-3.1-1.2-5s0.4-3.6,1.2-5.1C67.9,8.9,69,7.7,70.4,7c1.4-0.8,3-1.1,4.8-1.1S78.7,6.3,80,7c1.4,0.8,2.5,1.8,3.2,3.2
	c0.8,1.4,1.1,2.9,1.1,4.7C84.6,15.3,84.5,15.8,84.4,16.3z M77.9,11.2c-0.7-0.6-1.5-0.9-2.5-0.9s-1.9,0.3-2.6,0.9
	c-0.7,0.6-1.1,1.5-1.2,2.7h7.2C78.8,12.7,78.5,11.8,77.9,11.2z"/>
<path class="st0" d="M98.2,6.8c1,0.7,1.8,1.5,2.3,2.6V6h5.6v18.5h-5.6v-3.4c-0.5,1.1-1.3,2-2.3,2.6c-1,0.7-2.2,1-3.7,1
	s-2.9-0.4-4.1-1.1c-1.2-0.8-2.2-1.9-2.9-3.3c-0.7-1.4-1-3.1-1-5s0.4-3.6,1-5.1c0.7-1.4,1.7-2.5,2.9-3.3c1.2-0.8,2.6-1.1,4.1-1.1
	C96,5.8,97.2,6.1,98.2,6.8z M93.5,12c-0.7,0.8-1.1,1.9-1.1,3.3s0.4,2.5,1.1,3.3c0.7,0.8,1.7,1.2,2.9,1.2c1.2,0,2.2-0.4,2.9-1.2
	c0.8-0.8,1.1-1.9,1.1-3.3s-0.4-2.5-1.1-3.3c-0.8-0.8-1.7-1.2-2.9-1.2S94.2,11.2,93.5,12z"/>
<path class="st0" d="M139.4,8c1.3,1.4,2,3.4,2,5.9v10.8h-5.6V14.5c0-1.2-0.3-2.1-1-2.8c-0.6-0.7-1.5-1-2.6-1s-2,0.4-2.7,1
	c-0.7,0.7-1,1.7-1,2.9v9.8h-5.7v-9.9c0-1.2-0.3-2.1-0.9-2.8s-1.5-1-2.6-1s-2,0.4-2.7,1c-0.7,0.7-1,1.7-1,2.9v9.8h-5.7V6h5.7v3.2
	c0.5-1,1.2-1.9,2.2-2.5s2.2-0.9,3.5-0.9c1.4,0,2.7,0.3,3.8,1c1.1,0.7,1.9,1.6,2.5,2.8c0.7-1.1,1.5-2.1,2.6-2.8s2.3-1,3.7-1
	C136.3,5.9,138.1,6.5,139.4,8z"/>
<circle class="st0" cx="12.4" cy="12.6" r="12.4"/>
<g>
	<g>
		<path class="st0" d="M7.6,18.3c-0.1,0-0.1,0-0.2,0c-0.2-0.1-0.3-0.3-0.3-0.5V7.3c0-0.2,0.1-0.4,0.3-0.4C7.6,6.8,7.8,6.8,7.9,7
			l6,4.9c0.2,0.2,0.2,0.5,0.1,0.7c-0.2,0.2-0.5,0.2-0.7,0.1L8,8.3v8.3l2-2.1c0.2-0.2,0.5-0.2,0.7,0s0.2,0.5,0,0.7l-2.8,3
			C7.8,18.2,7.7,18.3,7.6,18.3z"/>
	</g>
	<g>
		<path class="st0" d="M17.3,18.3c-0.1,0-0.2,0-0.3-0.1l-6-4.8c-0.2-0.2-0.2-0.5-0.1-0.7c0.2-0.2,0.5-0.2,0.7-0.1l5.2,4.1V8.3
			l-2,1.8c-0.2,0.2-0.5,0.2-0.7,0s-0.2-0.5,0-0.7L17,7c0.1-0.1,0.3-0.2,0.5-0.1s0.3,0.3,0.3,0.4v10.5c0,0.2-0.1,0.4-0.3,0.4
			C17.4,18.3,17.4,18.3,17.3,18.3z"/>
	</g>
</g>
<path class="st1" d="M19.2,7.8"/>
<g>
	<path class="st1" d="M12.4,12.6"/>
</g>
<g>
	<path class="st1" d="M12.4,12.6"/>
</g>
<g>
	<path class="st1" d="M12.4,12.6"/>
</g>
<g>
	<g>
		<path class="st2" d="M7.6,18.3c-0.1,0-0.1,0-0.2,0c-0.2-0.1-0.3-0.3-0.3-0.5V7.3c0-0.2,0.1-0.4,0.3-0.4C7.6,6.8,7.8,6.8,7.9,7
			l6,4.9c0.2,0.2,0.2,0.5,0.1,0.7c-0.2,0.2-0.5,0.2-0.7,0.1L8,8.3v8.3l2-2.1c0.2-0.2,0.5-0.2,0.7,0s0.2,0.5,0,0.7l-2.8,3
			C7.8,18.2,7.7,18.3,7.6,18.3z"/>
	</g>
	<g>
		<path class="st2" d="M17.3,18.3c-0.1,0-0.2,0-0.3-0.1l-6-4.8c-0.2-0.2-0.2-0.5-0.1-0.7c0.2-0.2,0.5-0.2,0.7-0.1l5.2,4.1V8.3
			l-2,1.8c-0.2,0.2-0.5,0.2-0.7,0s-0.2-0.5,0-0.7L17,7c0.1-0.1,0.3-0.2,0.5-0.1s0.3,0.3,0.3,0.4v10.5c0,0.2-0.1,0.4-0.3,0.4
			C17.4,18.3,17.4,18.3,17.3,18.3z"/>
	</g>
</g>
</svg>
